<svg width="760" height="238" viewBox="0 0 760 238" fill="none" xmlns="http://www.w3.org/2000/svg">
  <rect width="760" height="238" rx="0" fill="transparent"/>
  <defs>
    <linearGradient id="kiwi" x1="533" y1="33" x2="679" y2="219" gradientUnits="userSpaceOnUse">
      <stop stop-color="#B7EF22"/>
      <stop offset="1" stop-color="#83C910"/>
    </linearGradient>
    <linearGradient id="letter" x1="54" y1="84" x2="54" y2="202" gradientUnits="userSpaceOnUse">
      <stop stop-color="#C8F044"/>
      <stop offset="1" stop-color="#80C90F"/>
    </linearGradient>
  </defs>
  <text x="24" y="184" font-family="Arial Black, Arial, sans-serif" font-size="118" font-weight="900" letter-spacing="-8" fill="white">Taxi kiwi</text>
  <text x="24" y="184" font-family="Arial Black, Arial, sans-serif" font-size="118" font-weight="900" letter-spacing="-8" fill="url(#letter)">T</text>
  <circle cx="262" cy="107" r="11" fill="#9DD51D" stroke="white" stroke-width="5"/>
  <circle cx="386" cy="107" r="11" fill="#9DD51D" stroke="white" stroke-width="5"/>
  <circle cx="536" cy="107" r="11" fill="#9DD51D" stroke="white" stroke-width="5"/>
  <path d="M562 76C574 33 623 17 655 46C681 70 697 82 723 93C748 104 761 131 755 163C747 207 708 232 665 225C625 219 595 190 593 153C591 129 585 107 562 76Z" fill="url(#kiwi)"/>
  <path d="M579 75C548 77 523 91 500 111C521 70 554 52 586 51C584 58 582 66 579 75Z" fill="#9DE014"/>
  <circle cx="606" cy="74" r="21" fill="#0A0D08"/>
  <circle cx="599" cy="70" r="8" fill="#FFF6D5"/>
  <circle cx="614" cy="68" r="4" fill="white"/>
</svg>
